<svg width="96" height="96" viewBox="0 0 96 96" fill="none" xmlns="http://www.w3.org/2000/svg">
  <rect width="96" height="96" rx="30" fill="url(#g)"/>
  <path d="M48 20c6.075 0 11 4.925 11 11s-4.925 11-11 11-11-4.925-11-11 4.925-11 11-11Z" fill="white"/>
  <path d="M24 54.5c4.9 13.2 16.1 20 24 20s19.1-6.8 24-20c1.2-3.2-2.6-6-5.2-3.8C60.3 56.2 54 59 48 59s-12.3-2.8-18.8-8.3c-2.6-2.2-6.4.6-5.2 3.8Z" fill="white"/>
  <defs>
    <linearGradient id="g" x1="16" x2="82" y1="13" y2="88" gradientUnits="userSpaceOnUse">
      <stop stop-color="#ecf8ff" stop-opacity="0.98"/>
      <stop offset="0.52" stop-color="#9adfff" stop-opacity="0.92"/>
      <stop offset="1" stop-color="#a78bfa" stop-opacity="0.9"/>
    </linearGradient>
  </defs>
</svg>
